<svg width="24" height="24" viewBox="0 0 24 24" fill="none" xmlns="http://www.w3.org/2000/svg">
<path d="M18.1174 24C16.8537 24 15.5228 23.6986 14.1473 23.1181C12.8052 22.5488 11.452 21.7674 10.1323 20.8186C8.82386 19.8586 7.56011 18.787 6.36347 17.6149C5.17801 16.4205 4.10438 15.1591 3.15377 13.8642C2.19199 12.5247 1.42032 11.1851 0.872321 9.89023C0.290774 8.50605 0 7.16651 0 5.90512C0 5.03442 0.15657 4.20837 0.458527 3.43814C0.771668 2.64558 1.27493 1.90884 1.95713 1.27256C2.81827 0.424186 3.80242 0 4.85368 0C5.28984 0 5.73719 0.100465 6.11743 0.27907C6.55359 0.48 6.92265 0.781395 7.19105 1.18326L9.78565 4.83349C10.0205 5.15721 10.1994 5.46977 10.3225 5.78233C10.4678 6.11721 10.5461 6.45209 10.5461 6.77581C10.5461 7.2 10.4231 7.61302 10.1883 8.00372C10.0205 8.30512 9.76328 8.62884 9.43896 8.95256L8.67847 9.74512C8.68966 9.7786 8.70084 9.80093 8.71202 9.82326C8.84623 10.0577 9.11463 10.4595 9.62908 11.0623C10.1771 11.6874 10.6915 12.2567 11.206 12.7814C11.8658 13.4288 12.4138 13.9423 12.9282 14.3665C13.5657 14.9023 13.9795 15.1702 14.2255 15.293L14.2032 15.3488L15.0196 14.5451C15.3663 14.1991 15.7018 13.9423 16.0261 13.7749C16.6412 13.3953 17.424 13.3284 18.2069 13.6521C18.4977 13.7749 18.8108 13.9423 19.1463 14.1767L22.8593 16.8112C23.2731 17.0902 23.575 17.4474 23.754 17.8716C23.9217 18.2958 24 18.6865 24 19.0772C24 19.613 23.877 20.1488 23.6421 20.6512C23.4073 21.1535 23.1165 21.5888 22.7474 21.9907C22.11 22.694 21.4166 23.1963 20.6114 23.52C19.8397 23.8326 19.0009 24 18.1174 24ZM4.85368 1.67442C4.23858 1.67442 3.66822 1.94233 3.12022 2.47814C2.60578 2.95814 2.2479 3.48279 2.02423 4.05209C1.78938 4.63256 1.67754 5.24651 1.67754 5.90512C1.67754 6.94326 1.92358 8.0707 2.41566 9.23163C2.91892 10.4149 3.62349 11.6428 4.51817 12.8707C5.41286 14.0986 6.43057 15.293 7.54893 16.4205C8.66729 17.5256 9.87512 18.5526 11.1165 19.4567C12.3243 20.3386 13.5657 21.053 14.7959 21.5665C16.7083 22.3814 18.4977 22.5712 19.9739 21.9572C20.5443 21.7228 21.0475 21.3656 21.5061 20.8521C21.7633 20.573 21.9646 20.2716 22.1323 19.9144C22.2665 19.6353 22.3336 19.3451 22.3336 19.0549C22.3336 18.8763 22.3001 18.6977 22.2106 18.4967C22.1771 18.4298 22.11 18.307 21.8975 18.1619L18.1845 15.5274C17.9609 15.3712 17.7596 15.2595 17.5694 15.1814C17.3234 15.0809 17.2227 14.9805 16.8425 15.2149C16.6188 15.3265 16.4175 15.494 16.1938 15.7172L15.3439 16.5544C14.9077 16.9786 14.2367 17.0791 13.7223 16.8893L13.4203 16.7553C12.9618 16.5098 12.425 16.1302 11.8322 15.6279C11.2954 15.1702 10.7139 14.6344 10.0093 13.9423C9.46132 13.3842 8.91333 12.7926 8.34296 12.134C7.81733 11.52 7.43709 10.9953 7.20224 10.56L7.06803 10.2251C7.00093 9.96837 6.97857 9.82326 6.97857 9.66698C6.97857 9.26512 7.12395 8.90791 7.40354 8.62884L8.24231 7.75814C8.46598 7.53488 8.63374 7.32279 8.74557 7.13302C8.83504 6.98791 8.86859 6.86512 8.86859 6.75349C8.86859 6.66419 8.83504 6.53023 8.77912 6.39628C8.70084 6.21767 8.57782 6.01674 8.42125 5.80465L5.82665 2.14326C5.71482 1.98698 5.58062 1.87535 5.41286 1.79721C5.23392 1.71907 5.0438 1.67442 4.85368 1.67442ZM14.2032 15.36L14.0242 16.1191L14.3262 15.3377C14.2703 15.3265 14.2255 15.3377 14.2032 15.36Z" fill="white"/>
</svg>
