<svg width="32" height="32" viewBox="0 0 32 32" fill="none" xmlns="http://www.w3.org/2000/svg">
<path d="M19 11.95V16.3H22.9C23.2 16.3 23.35 16.6 23.35 16.9L22.75 19.75C22.75 19.9 22.45 20.05 22.3 20.05H19V31H14.5V20.2H11.95C11.65 20.2 11.5 20.05 11.5 19.75V16.9C11.5 16.6 11.65 16.45 11.95 16.45H14.5V11.5C14.5 8.95 16.45 7 19 7H23.05C23.35 7 23.5 7.15 23.5 7.45V11.05C23.5 11.35 23.35 11.5 23.05 11.5H19.45C19.15 11.5 19 11.65 19 11.95Z" stroke="white" stroke-width="2" stroke-miterlimit="10" stroke-linecap="round"/>
<path d="M20.5 31H11.5C4 31 1 28 1 20.5V11.5C1 4 4 1 11.5 1H20.5C28 1 31 4 31 11.5V20.5C31 28 28 31 20.5 31Z" stroke="white" stroke-width="2" stroke-linecap="round" stroke-linejoin="round"/>
</svg>
