<svg width="50" height="46" viewBox="0 0 50 46" fill="none" xmlns="http://www.w3.org/2000/svg">
<path d="M17.1842 23.4407C14.0352 31.6939 18.3266 40.9758 26.7343 44.207C22.8332 31.2787 28.63 21.5719 38.14 17.4394C30.1646 25.279 27.0623 32.278 32.269 45.3072C38.9868 45.4901 45.3479 41.591 47.8276 35.0911C51.7529 25.794 47.6347 10.6791 44.8356 4.62529C43.735 2.50271 42.0678 0.449495 41.2213 0.437012C40.9791 1.7245 40.8078 2.90532 34.716 6.73207C28.1175 10.877 19.5585 17.2178 17.1842 23.4407Z" fill="url(#paint0_linear_476_1939)"/>
<path d="M1.39666 34.5865C4.4449 42.9635 13.7829 47.4176 22.2499 44.5842C10.81 37.0637 8.80415 25.8842 13.2633 16.6593C13.1182 18.524 13.061 20.2834 13.1252 21.9525C13.2604 25.4656 13.4135 27.0033 14.9375 29.853C14.2259 25.0795 15.7158 22.4813 16.352 21.141C16.9881 19.8006 18.2793 17.9884 18.7142 17.4545C21.9185 13.5202 23.0453 12.8531 23.0453 12.8531C17.8699 7.47817 11.7598 3.57364 8.86675 2.23068C7.54248 1.56503 5.13582 1.01548 4.41401 1.56162C5.07744 2.7102 5.72414 3.73189 3.64298 10.553C1.38876 17.9414 -0.901695 28.2704 1.39666 34.5865Z" fill="url(#paint1_linear_476_1939)"/>
<defs>
<linearGradient id="paint0_linear_476_1939" x1="23.0971" y1="12.76" x2="1.09507" y2="36.8149" gradientUnits="userSpaceOnUse">
<stop stop-color="#5F1580"/>
<stop offset="1" stop-color="#0CAC8E"/>
</linearGradient>
<linearGradient id="paint1_linear_476_1939" x1="23.0971" y1="12.76" x2="1.09507" y2="36.8149" gradientUnits="userSpaceOnUse">
<stop stop-color="#5F1580"/>
<stop offset="1" stop-color="#0CAC8E"/>
</linearGradient>
</defs>
</svg>
