<svg width="32" height="32" viewBox="0 0 32 32" fill="none" xmlns="http://www.w3.org/2000/svg">
<path d="M23 31H9C4.6 31 1 27.4 1 23V9C1 4.6 4.6 1 9 1H23C27.4 1 31 4.6 31 9V23C31 27.4 27.4 31 23 31Z" stroke="white" stroke-width="2" stroke-miterlimit="10" stroke-linecap="round" stroke-linejoin="round"/>
<path d="M11 13H7V25H11V13Z" stroke="white" stroke-width="2" stroke-miterlimit="10" stroke-linecap="round" stroke-linejoin="round"/>
<path d="M20.4999 13C19.5999 13 18.6999 13.3 17.9999 13.8V13H13.9999V25H17.9999V18.5C17.9999 17.7 18.6999 17 19.4999 17C20.2999 17 20.9999 17.7 20.9999 18.5V25H24.9999V17.5C24.9999 15 22.9999 13 20.4999 13Z" stroke="white" stroke-width="2" stroke-miterlimit="10" stroke-linecap="round" stroke-linejoin="round"/>
<path d="M9 9.99972C10.1046 9.99972 11 9.10429 11 7.99972C11 6.89515 10.1046 5.99972 9 5.99972C7.89543 5.99972 7 6.89515 7 7.99972C7 9.10429 7.89543 9.99972 9 9.99972Z" stroke="white" stroke-width="2" stroke-miterlimit="10" stroke-linecap="round" stroke-linejoin="round"/>
</svg>
