<svg width="20" height="20" viewBox="0 0 20 20" fill="none" xmlns="http://www.w3.org/2000/svg">
<mask id="path-1-inside-1_127_1782" fill="white">
<path fill-rule="evenodd" clip-rule="evenodd" d="M8.41467 15.286C4.4824 15.286 1.29472 12.1538 1.29472 8.28385C1.29472 4.41389 4.4824 1.27543 8.41467 1.27543C12.3469 1.27543 15.5353 4.41389 15.5353 8.28385C15.5353 12.1538 12.3469 15.286 8.41467 15.286ZM19.8101 18.9122L14.6469 13.8293C15.9985 12.3601 16.8294 10.422 16.8294 8.28385C16.8294 3.70742 13.0621 0 8.41467 0C3.76722 0 0 3.70742 0 8.28385C0 12.854 3.76722 16.5614 8.41467 16.5614C10.4227 16.5614 12.2644 15.8675 13.711 14.7109L18.8949 19.8124C19.1481 20.0625 19.5575 20.0625 19.8101 19.8124C20.0633 19.5686 20.0633 19.1623 19.8101 18.9122Z"/>
</mask>
<path fill-rule="evenodd" clip-rule="evenodd" d="M8.41467 15.286C4.4824 15.286 1.29472 12.1538 1.29472 8.28385C1.29472 4.41389 4.4824 1.27543 8.41467 1.27543C12.3469 1.27543 15.5353 4.41389 15.5353 8.28385C15.5353 12.1538 12.3469 15.286 8.41467 15.286ZM19.8101 18.9122L14.6469 13.8293C15.9985 12.3601 16.8294 10.422 16.8294 8.28385C16.8294 3.70742 13.0621 0 8.41467 0C3.76722 0 0 3.70742 0 8.28385C0 12.854 3.76722 16.5614 8.41467 16.5614C10.4227 16.5614 12.2644 15.8675 13.711 14.7109L18.8949 19.8124C19.1481 20.0625 19.5575 20.0625 19.8101 19.8124C20.0633 19.5686 20.0633 19.1623 19.8101 18.9122Z" fill="white"/>
<path d="M19.8101 18.9122L21.2156 17.4893L21.2132 17.4869L19.8101 18.9122ZM14.6469 13.8293L13.175 12.4753L11.866 13.8982L13.2438 15.2546L14.6469 13.8293ZM13.711 14.7109L15.1139 13.2854L13.8486 12.0402L12.4621 13.1488L13.711 14.7109ZM18.8949 19.8124L20.3003 18.3895L20.2977 18.387L18.8949 19.8124ZM19.8101 19.8124L18.4228 18.3718L18.4128 18.3815L18.4029 18.3912L19.8101 19.8124ZM8.41467 13.286C5.55487 13.286 3.29472 11.0174 3.29472 8.28385H-0.705282C-0.705282 13.2902 3.40993 17.286 8.41467 17.286V13.286ZM3.29472 8.28385C3.29472 5.54798 5.55722 3.27543 8.41467 3.27543V-0.724575C3.40758 -0.724575 -0.705282 3.2798 -0.705282 8.28385H3.29472ZM8.41467 3.27543C11.2724 3.27543 13.5353 5.54821 13.5353 8.28385H17.5353C17.5353 3.27956 13.4215 -0.724575 8.41467 -0.724575V3.27543ZM13.5353 8.28385C13.5353 11.0172 11.2747 13.286 8.41467 13.286V17.286C13.4192 17.286 17.5353 13.2905 17.5353 8.28385H13.5353ZM21.2132 17.4869L16.05 12.4041L13.2438 15.2546L18.407 20.3375L21.2132 17.4869ZM16.1188 15.1834C17.7885 13.3684 18.8294 10.9545 18.8294 8.28385H14.8294C14.8294 9.88957 14.2085 11.3519 13.175 12.4753L16.1188 15.1834ZM18.8294 8.28385C18.8294 2.57322 14.1368 -2 8.41467 -2V2C11.9874 2 14.8294 4.84161 14.8294 8.28385H18.8294ZM8.41467 -2C2.6925 -2 -2 2.57323 -2 8.28385H2C2 4.8416 4.84193 2 8.41467 2V-2ZM-2 8.28385C-2 13.9892 2.69349 18.5614 8.41467 18.5614V14.5615C4.84094 14.5615 2 11.7189 2 8.28385H-2ZM8.41467 18.5614C10.8912 18.5614 13.1704 17.7038 14.96 16.273L12.4621 13.1488C11.3585 14.0312 9.95416 14.5615 8.41467 14.5615V18.5614ZM12.3082 16.1364L17.492 21.2379L20.2977 18.387L15.1139 13.2854L12.3082 16.1364ZM17.4894 21.2354C18.5207 22.2539 20.1844 22.2564 21.2173 21.2336L18.4029 18.3912C18.9307 17.8686 19.7755 17.8711 20.3003 18.3895L17.4894 21.2354ZM21.1974 21.253C22.2777 20.2127 22.2513 18.5123 21.2155 17.4893L18.4047 20.3351C17.8753 19.8123 17.8489 18.9245 18.4228 18.3718L21.1974 21.253Z" fill="white" mask="url(#path-1-inside-1_127_1782)"/>
</svg>
