<svg width="31" height="30" viewBox="0 0 31 30" fill="none" xmlns="http://www.w3.org/2000/svg">
<path d="M6.81054 1H23.3512C26.561 1 29.1617 3.59988 29.1617 6.80539V23.1946C29.1617 26.4001 26.561 29 23.3512 29H6.81054C3.60075 29 1 26.4001 1 23.1946V6.80539C1 3.59988 3.60075 1 6.81054 1Z" stroke="white" stroke-width="2"/>
<path d="M19.0714 8.73242H21.1992L16.5506 14.0421L22.0192 21.2666H17.7371L14.3833 16.8852L10.5454 21.2666H8.41639L13.3884 15.5878L8.14246 8.73242H12.533L15.5645 12.7376L19.0714 8.73242ZM18.3244 19.9939H19.5038L11.8926 9.93857H10.6273L18.3244 19.9939Z" fill="white"/>
</svg>
