<svg width="54" height="91" viewBox="0 0 54 91" fill="none" xmlns="http://www.w3.org/2000/svg">
<path d="M24.1321 42.6353C30.67 42.6353 36.2665 44.9506 40.9218 49.5813C45.577 54.2463 47.9047 59.8717 47.9047 66.4575V91.0001H36.5575V66.4575C36.5575 62.9931 35.3423 60.0604 32.912 57.6593C30.4817 55.1896 27.555 53.9547 24.1321 53.9547C20.709 53.9547 17.7653 55.1896 15.3007 57.6593C12.8704 60.0604 11.6552 62.9931 11.6552 66.4575V91.0001H0V6.82481H11.3472V46.3398C15.2152 43.8701 19.4767 42.6353 24.1321 42.6353Z" fill="white"/>
<path d="M33.1662 14.855C28.2686 16.8426 25.9128 22.4165 27.8751 27.3035C31.9919 20.4249 38.5946 18.9794 44.2397 21.3654C37.5815 21.1291 33.2544 22.6306 29.6185 30.1064C32.2416 33.0431 36.5169 34.1812 40.374 32.6159C46.0432 30.5379 51.0346 22.6846 52.571 19.0492C53.0616 17.7238 53.294 16.1848 52.9587 15.819C52.2951 16.2353 51.7067 16.6386 47.5717 15.5861C43.0927 14.4461 36.8591 13.3563 33.1662 14.855Z" fill="white"/>
<path d="M21.9129 12.6236C19.455 17.303 21.2536 23.0808 25.907 25.5466C24.6112 17.6356 28.721 12.2696 34.5728 10.4481C33.6942 11.1387 32.8973 11.8243 32.1891 12.5251C30.6983 14.0003 30.0837 14.686 29.4435 16.4854C31.2567 14.256 32.9989 13.8427 33.8445 13.5731C34.69 13.3035 36.0066 13.1226 36.4164 13.0926C39.4362 12.871 40.183 13.0821 40.183 13.0821C40.4644 8.70719 39.723 4.52711 39.1496 2.75201C38.9095 1.91893 38.1827 0.671298 37.652 0.583984C37.4139 1.33024 37.2247 2.01816 33.3871 3.88338C29.2305 5.90375 23.7659 9.09513 21.9129 12.6236Z" fill="white"/>
</svg>
