<svg width="33" height="57" viewBox="0 0 33 57" fill="none" xmlns="http://www.w3.org/2000/svg">
<g clip-path="url(#clip0_979_2961)">
<path d="M14.7474 26.7056C18.7428 26.7056 22.1629 28.1558 25.0078 31.0563C27.8526 33.9784 29.2751 37.502 29.2751 41.6272V57H22.3407V41.6272C22.3407 39.4571 21.5981 37.6202 20.1129 36.1162C18.6277 34.5692 16.8392 33.7957 14.7474 33.7957C12.6555 33.7957 10.8566 34.5692 9.35043 36.1162C7.86524 37.6202 7.12262 39.4571 7.12262 41.6272V57H0V4.27481H6.9344V29.026C9.29818 27.479 11.9024 26.7056 14.7474 26.7056Z" fill="white"/>
<path d="M20.2682 9.30471C17.2753 10.5497 15.8356 14.041 17.0348 17.1021C19.5506 12.7935 23.5856 11.8881 27.0354 13.3827C22.9665 13.2346 20.3221 14.1751 18.1002 18.8578C19.7032 20.6973 22.3159 21.4101 24.673 20.4297C28.1375 19.1281 31.1878 14.209 32.1267 11.9318C32.4265 11.1017 32.5686 10.1377 32.3636 9.90854C31.9581 10.1693 31.5985 10.4219 29.0716 9.76265C26.3344 9.04859 22.525 8.36596 20.2682 9.30471Z" fill="white"/>
<path d="M13.3912 7.90702C11.8892 10.8381 12.9883 14.4571 15.8321 16.0016C15.0402 11.0464 17.5517 7.68528 21.1278 6.54434C20.5909 6.97692 20.1039 7.40636 19.6711 7.84532C18.7601 8.76935 18.3845 9.19885 17.9932 10.3259C19.1013 8.92951 20.166 8.67063 20.6828 8.50176C21.1994 8.33289 22.004 8.21958 22.2545 8.20079C24.0999 8.06199 24.5563 8.19421 24.5563 8.19421C24.7282 5.45388 24.2752 2.83559 23.9248 1.72372C23.778 1.2019 23.3339 0.420414 23.0096 0.365723C22.8641 0.833158 22.7484 1.26405 20.4032 2.43238C17.8631 3.69788 14.5236 5.69688 13.3912 7.90702Z" fill="white"/>
</g>
<defs>
<clipPath id="clip0_979_2961">
<rect width="33" height="57" fill="white"/>
</clipPath>
</defs>
</svg>
